<svg width="21" height="24" viewBox="0 0 21 24" fill="none" xmlns="http://www.w3.org/2000/svg">
<path d="M17.9375 0.625C16.7294 0.625 15.75 1.60438 15.75 2.8125V21.1875C15.75 22.3956 16.7294 23.375 17.9375 23.375H18.8125C20.0206 23.375 21 22.3956 21 21.1875V2.8125C21 1.60438 20.0206 0.625 18.8125 0.625H17.9375Z" fill="white"/>
<path d="M7.875 8.0625C7.875 6.85438 8.85438 5.875 10.0625 5.875H10.9375C12.1456 5.875 13.125 6.85438 13.125 8.0625V21.1875C13.125 22.3956 12.1456 23.375 10.9375 23.375H10.0625C8.85438 23.375 7.875 22.3956 7.875 21.1875V8.0625Z" fill="white"/>
<path d="M0 13.3125C0 12.1044 0.979377 11.125 2.1875 11.125H3.0625C4.27062 11.125 5.25 12.1044 5.25 13.3125V21.1875C5.25 22.3956 4.27062 23.375 3.0625 23.375H2.1875C0.979377 23.375 0 22.3956 0 21.1875V13.3125Z" fill="white"/>
</svg>
