<svg width="27" height="23" viewBox="0 0 27 23" fill="none" xmlns="http://www.w3.org/2000/svg">
<path d="M13.15 0.272898C13.3734 0.17531 13.6273 0.17531 13.8507 0.272898C18.1893 2.16852 22.3012 4.48582 26.1347 7.17288C26.4121 7.36733 26.5524 7.70446 26.4947 8.0383C26.437 8.37215 26.1919 8.64271 25.8653 8.73285C25.0662 8.95341 24.274 9.19097 23.489 9.44413C20.3028 10.4717 17.2356 11.7647 14.3136 13.297L14.3098 13.299C14.1773 13.3685 14.0451 13.4384 13.9132 13.5089C13.6556 13.6466 13.3462 13.6466 13.0885 13.5089C12.9554 13.4378 12.8219 13.3671 12.6881 13.297C11.2433 12.5393 9.76292 11.8401 8.25024 11.2026V10.9417C8.25024 10.7884 8.3289 10.6524 8.4506 10.5787C10.2066 9.5149 12.0179 8.53332 13.8791 7.63931C14.3147 7.43008 14.4982 6.90734 14.289 6.47173C14.0797 6.03613 13.557 5.85262 13.1214 6.06185C11.2089 6.98046 9.34791 7.989 7.54382 9.08197C7.01488 9.40242 6.65929 9.92689 6.54233 10.5145C5.54492 10.1308 4.5344 9.77343 3.51158 9.44358C2.72662 9.19043 1.93442 8.95339 1.13538 8.73283C0.808806 8.64269 0.563615 8.37213 0.505957 8.03829C0.4483 7.70445 0.588539 7.36732 0.865959 7.17286C4.69944 4.48581 8.81138 2.16852 13.15 0.272898Z" fill="white"/>
<path d="M14.7379 15.0524C17.5833 13.5321 20.5727 12.2468 23.6804 11.2224C23.837 12.873 23.937 14.54 23.9784 16.2215C23.9873 16.5822 23.7738 16.9114 23.4408 17.0505C20.1144 18.4392 16.9505 20.1398 13.9855 22.1157C13.6917 22.3115 13.3089 22.3115 13.015 22.1157C10.05 20.1398 6.8861 18.4392 3.55977 17.0505C3.22676 16.9114 3.01327 16.5822 3.02215 16.2215C3.06358 14.5399 3.16359 12.8728 3.32023 11.222C4.39473 11.5762 5.45509 11.9616 6.50024 12.377V13.8592C5.97717 14.1618 5.62524 14.7273 5.62524 15.3751C5.62524 15.9529 5.90534 16.4654 6.33717 16.7841C6.23273 17.2281 6.07817 17.6627 5.87347 18.0788C6.40162 18.3281 6.92524 18.5853 7.44419 18.8505C7.73975 18.2494 7.95405 17.6184 8.08708 16.9742C8.69882 16.7015 9.12524 16.0881 9.12524 15.3751C9.12524 14.7273 8.77332 14.1618 8.25024 13.8592V13.1069C9.61688 13.7041 10.9556 14.3534 12.2638 15.0524C13.0368 15.4654 13.9649 15.4654 14.7379 15.0524Z" fill="white"/>
<path d="M4.70617 19.7061C5.19516 19.2171 5.58444 18.6663 5.87347 18.0788C6.40162 18.3281 6.92524 18.5853 7.44419 18.8505C7.07255 19.6063 6.57216 20.315 5.94361 20.9435C5.6019 21.2852 5.04788 21.2852 4.70617 20.9435C4.36446 20.6018 4.36446 20.0478 4.70617 19.7061Z" fill="white"/>
</svg>
