<svg width="20" height="20" viewBox="0 0 20 20" fill="none" xmlns="http://www.w3.org/2000/svg">
<path d="M8.24378 0.286752C8.00941 0.0406585 7.65785 -0.0530915 7.32972 0.032846C7.0016 0.118783 6.74769 0.380502 6.66175 0.708627L6.04456 3.15003L3.62269 2.46644C3.29456 2.37269 2.943 2.46644 2.70472 2.70472C2.46644 2.943 2.37269 3.29456 2.46644 3.62269L3.15003 6.04456L0.708627 6.66566C0.380502 6.74769 0.12269 7.0055 0.032846 7.33363C-0.0569978 7.66175 0.0406585 8.00941 0.286752 8.24378L2.09144 10.0016L0.286752 11.7594C0.0406585 11.9938 -0.0530915 12.3453 0.032846 12.6735C0.118783 13.0016 0.380502 13.2555 0.708627 13.3414L3.15003 13.9586L2.46644 16.3805C2.37269 16.7086 2.46644 17.0602 2.70472 17.2985C2.943 17.5368 3.29456 17.6305 3.62269 17.5368L6.04456 16.8532L6.66175 19.2946C6.74378 19.6227 7.0016 19.8805 7.32972 19.9703C7.65785 20.0602 8.0055 19.9625 8.24378 19.7203L10.0016 17.9157L11.7594 19.7203C11.9977 19.9625 12.3453 20.0602 12.6735 19.9703C13.0016 19.8805 13.2555 19.6227 13.3414 19.2946L13.9586 16.8532L16.3805 17.5368C16.7086 17.6305 17.0602 17.5368 17.2985 17.2985C17.5368 17.0602 17.6305 16.7086 17.5368 16.3805L16.8532 13.9586L19.2946 13.3414C19.6227 13.2594 19.8805 13.0016 19.9703 12.6735C20.0602 12.3453 19.9625 11.9977 19.7203 11.7594L17.9157 10.0016L19.7203 8.24378C19.9625 8.0055 20.0602 7.65785 19.9703 7.32972C19.8805 7.0016 19.6227 6.74769 19.2946 6.66175L16.8532 6.04456L17.5368 3.62269C17.6305 3.29456 17.5368 2.943 17.2985 2.70472C17.0602 2.46644 16.7086 2.37269 16.3805 2.46644L13.9586 3.15003L13.3375 0.708627C13.2555 0.380502 12.9977 0.12269 12.6696 0.032846C12.3414 -0.0569978 11.9938 0.0406585 11.7594 0.286752L10.0016 2.09144L8.24378 0.286752Z" fill="#39FF14"/>
</svg>
