<svg width="23" height="24" viewBox="0 0 23 24" fill="none" xmlns="http://www.w3.org/2000/svg">
<path d="M11.5 0.625C11.9832 0.625 12.375 1.01675 12.375 1.5V4.125C12.375 4.60825 11.9832 5 11.5 5C11.0168 5 10.625 4.60825 10.625 4.125V1.5C10.625 1.01675 11.0168 0.625 11.5 0.625Z" fill="white"/>
<path d="M6.25 12C6.25 9.1005 8.6005 6.75 11.5 6.75C14.3995 6.75 16.75 9.1005 16.75 12C16.75 14.8995 14.3995 17.25 11.5 17.25C8.6005 17.25 6.25 14.8995 6.25 12Z" fill="white"/>
<path d="M19.5434 5.19406C19.8851 4.85235 19.8851 4.29833 19.5434 3.95662C19.2017 3.61492 18.6477 3.61492 18.306 3.95662L16.4498 5.81278C16.1081 6.15449 16.1081 6.70851 16.4498 7.05022C16.7915 7.39193 17.3455 7.39192 17.6872 7.05022L19.5434 5.19406Z" fill="white"/>
<path d="M22.875 12C22.875 12.4832 22.4832 12.875 22 12.875H19.375C18.8918 12.875 18.5 12.4832 18.5 12C18.5 11.5168 18.8918 11.125 19.375 11.125H22C22.4832 11.125 22.875 11.5168 22.875 12Z" fill="white"/>
<path d="M18.3058 20.0433C18.6475 20.385 19.2016 20.385 19.5433 20.0433C19.885 19.7016 19.885 19.1476 19.5433 18.8059L17.6871 16.9497C17.3454 16.608 16.7914 16.608 16.4497 16.9497C16.108 17.2914 16.108 17.8454 16.4497 18.1871L18.3058 20.0433Z" fill="white"/>
<path d="M11.5 19C11.9832 19 12.375 19.3918 12.375 19.875V22.5C12.375 22.9832 11.9832 23.375 11.5 23.375C11.0168 23.375 10.625 22.9832 10.625 22.5V19.875C10.625 19.3918 11.0168 19 11.5 19Z" fill="white"/>
<path d="M6.55042 18.1871C6.89213 17.8454 6.89213 17.2914 6.55042 16.9497C6.20871 16.608 5.65469 16.608 5.31298 16.9497L3.45683 18.8059C3.11512 19.1476 3.11512 19.7016 3.45683 20.0433C3.79854 20.385 4.35256 20.385 4.69426 20.0433L6.55042 18.1871Z" fill="white"/>
<path d="M4.5 12C4.5 12.4832 4.10825 12.875 3.625 12.875H1C0.516751 12.875 0.125 12.4832 0.125 12C0.125 11.5168 0.516751 11.125 1 11.125H3.625C4.10825 11.125 4.5 11.5168 4.5 12Z" fill="white"/>
<path d="M5.31285 7.05021C5.65456 7.39191 6.20858 7.39192 6.55029 7.05021C6.892 6.7085 6.892 6.15448 6.55029 5.81277L4.69413 3.95661C4.35242 3.61491 3.7984 3.61491 3.4567 3.95661C3.11499 4.29832 3.11499 4.85234 3.4567 5.19405L5.31285 7.05021Z" fill="white"/>
</svg>
