<svg width="25" height="26" viewBox="0 0 25 26" fill="none" xmlns="http://www.w3.org/2000/svg">
<path fill-rule="evenodd" clip-rule="evenodd" d="M9 4.25C9.39067 4.25 9.73401 4.50898 9.84133 4.88462L10.7901 8.20517C11.2053 9.65858 12.3414 10.7947 13.7948 11.2099L17.1154 12.1587C17.491 12.266 17.75 12.6093 17.75 13C17.75 13.3907 17.491 13.734 17.1154 13.8413L13.7948 14.7901C12.3414 15.2053 11.2053 16.3414 10.7901 17.7948L9.84133 21.1154C9.73401 21.491 9.39067 21.75 9 21.75C8.60933 21.75 8.26599 21.491 8.15867 21.1154L7.20994 17.7948C6.79468 16.3414 5.65858 15.2053 4.20517 14.7901L0.884619 13.8413C0.50898 13.734 0.25 13.3907 0.25 13C0.25 12.6093 0.50898 12.266 0.884619 12.1587L4.20517 11.2099C5.65858 10.7947 6.79468 9.65858 7.20994 8.20517L8.15867 4.88462C8.26599 4.50898 8.60933 4.25 9 4.25Z" fill="white"/>
<path fill-rule="evenodd" clip-rule="evenodd" d="M19.5 0.75C19.9015 0.75 20.2515 1.02326 20.3489 1.41278L20.6509 2.62082C20.9252 3.71807 21.7819 4.5748 22.8792 4.84912L24.0872 5.15113C24.4767 5.24851 24.75 5.59849 24.75 6C24.75 6.40151 24.4767 6.75149 24.0872 6.84887L22.8792 7.15088C21.7819 7.4252 20.9252 8.28193 20.6509 9.37918L20.3489 10.5872C20.2515 10.9767 19.9015 11.25 19.5 11.25C19.0985 11.25 18.7485 10.9767 18.6511 10.5872L18.3491 9.37918C18.0748 8.28193 17.2181 7.4252 16.1208 7.15088L14.9128 6.84887C14.5233 6.75149 14.25 6.40151 14.25 6C14.25 5.59849 14.5233 5.24851 14.9128 5.15113L16.1208 4.84912C17.2181 4.5748 18.0748 3.71807 18.3491 2.62082L18.6511 1.41278C18.7485 1.02326 19.0985 0.75 19.5 0.75Z" fill="white"/>
<path fill-rule="evenodd" clip-rule="evenodd" d="M17.75 16.5C18.1266 16.5 18.461 16.741 18.5801 17.0983L19.0401 18.4782C19.2142 19.0007 19.6243 19.4108 20.1468 19.5849L21.5267 20.0449C21.884 20.164 22.125 20.4984 22.125 20.875C22.125 21.2516 21.884 21.586 21.5267 21.7051L20.1468 22.1651C19.6243 22.3392 19.2142 22.7493 19.0401 23.2718L18.5801 24.6517C18.461 25.009 18.1266 25.25 17.75 25.25C17.3734 25.25 17.039 25.009 16.9199 24.6517L16.4599 23.2718C16.2858 22.7493 15.8757 22.3392 15.3532 22.1651L13.9733 21.7051C13.616 21.586 13.375 21.2516 13.375 20.875C13.375 20.4984 13.616 20.164 13.9733 20.0449L15.3532 19.5849C15.8757 19.4108 16.2858 19.0007 16.4599 18.4782L16.9199 17.0983C17.039 16.741 17.3734 16.5 17.75 16.5Z" fill="white"/>
</svg>
