<svg width="25" height="23" viewBox="0 0 25 23" fill="none" xmlns="http://www.w3.org/2000/svg">
<path fill-rule="evenodd" clip-rule="evenodd" d="M8.125 4.875C8.125 2.45875 10.0838 0.5 12.5 0.5C14.9162 0.5 16.875 2.45875 16.875 4.875C16.875 7.29125 14.9162 9.25 12.5 9.25C10.0838 9.25 8.125 7.29125 8.125 4.875Z" fill="white"/>
<path fill-rule="evenodd" clip-rule="evenodd" d="M16.875 8.375C16.875 6.442 18.442 4.875 20.375 4.875C22.308 4.875 23.875 6.442 23.875 8.375C23.875 10.308 22.308 11.875 20.375 11.875C18.442 11.875 16.875 10.308 16.875 8.375Z" fill="white"/>
<path fill-rule="evenodd" clip-rule="evenodd" d="M1.125 8.375C1.125 6.442 2.692 4.875 4.625 4.875C6.558 4.875 8.125 6.442 8.125 8.375C8.125 10.308 6.558 11.875 4.625 11.875C2.692 11.875 1.125 10.308 1.125 8.375Z" fill="white"/>
<path fill-rule="evenodd" clip-rule="evenodd" d="M5.86151 14.6371C7.25914 12.4518 9.70974 11 12.5 11C15.2906 11 17.7415 12.4522 19.139 14.6379C20.1052 16.149 20.5232 17.9711 20.3271 19.7476C20.2965 20.0252 20.1351 20.2715 19.8929 20.4105C17.7143 21.6606 15.1893 22.375 12.5 22.375C9.81074 22.375 7.28569 21.6606 5.10712 20.4105C4.86486 20.2715 4.70351 20.0252 4.67287 19.7476C4.47676 17.9707 4.89498 16.1483 5.86151 14.6371Z" fill="white"/>
<path d="M4.42933 13.6293C4.41528 13.6509 4.40132 13.6725 4.38744 13.6942C3.26107 15.4554 2.74559 17.5528 2.90383 19.6205C2.19445 19.5128 1.50615 19.3394 0.845499 19.1068L0.711382 19.0595C0.466718 18.9734 0.295765 18.7512 0.275189 18.4926L0.26391 18.3509C0.254687 18.235 0.25 18.1179 0.25 18C0.25 15.6493 2.10389 13.7316 4.42933 13.6293Z" fill="white"/>
<path d="M22.0966 19.6204C22.2548 17.5532 21.7396 15.4562 20.6136 13.6952C20.5995 13.6732 20.5854 13.6512 20.5711 13.6293C22.8963 13.7319 24.75 15.6495 24.75 18C24.75 18.1179 24.7453 18.235 24.7361 18.3509L24.7248 18.4926C24.7042 18.7512 24.5333 18.9734 24.2886 19.0595L24.1545 19.1068C23.494 19.3394 22.8058 19.5127 22.0966 19.6204Z" fill="white"/>
</svg>
