<svg width="130" height="100" viewBox="0 0 130 100" fill="none" xmlns="http://www.w3.org/2000/svg">
<path fill-rule="evenodd" clip-rule="evenodd" d="M1.29441 2.25582C1.91734 2.25582 2.42232 1.75083 2.42232 1.12791C2.42232 0.504982 1.91734 0 1.29441 0C0.671486 0 0.166504 0.504982 0.166504 1.12791C0.166504 1.75083 0.671486 2.25582 1.29441 2.25582ZM11.0696 2.25582C11.6925 2.25582 12.1975 1.75083 12.1975 1.12791C12.1975 0.504982 11.6925 0 11.0696 0C10.4467 0 9.94171 0.504982 9.94171 1.12791C9.94171 1.75083 10.4467 2.25582 11.0696 2.25582ZM21.9727 1.12791C21.9727 1.75083 21.4678 2.25582 20.8448 2.25582C20.2219 2.25582 19.7169 1.75083 19.7169 1.12791C19.7169 0.504982 20.2219 0 20.8448 0C21.4678 0 21.9727 0.504982 21.9727 1.12791ZM30.62 2.25582C31.243 2.25582 31.7479 1.75083 31.7479 1.12791C31.7479 0.504982 31.243 0 30.62 0C29.9971 0 29.4921 0.504982 29.4921 1.12791C29.4921 1.75083 29.9971 2.25582 30.62 2.25582ZM41.5231 1.12791C41.5231 1.75083 41.0182 2.25582 40.3952 2.25582C39.7723 2.25582 39.2673 1.75083 39.2673 1.12791C39.2673 0.504982 39.7723 0 40.3952 0C41.0182 0 41.5231 0.504982 41.5231 1.12791ZM50.1704 2.25582C50.7934 2.25582 51.2984 1.75083 51.2984 1.12791C51.2984 0.504982 50.7934 0 50.1704 0C49.5475 0 49.0425 0.504982 49.0425 1.12791C49.0425 1.75083 49.5475 2.25582 50.1704 2.25582ZM61.0736 1.12791C61.0736 1.75083 60.5686 2.25582 59.9456 2.25582C59.3227 2.25582 58.8177 1.75083 58.8177 1.12791C58.8177 0.504982 59.3227 0 59.9456 0C60.5686 0 61.0736 0.504982 61.0736 1.12791ZM69.7209 2.25582C70.3438 2.25582 70.8488 1.75083 70.8488 1.12791C70.8488 0.504982 70.3438 0 69.7209 0C69.0979 0 68.5929 0.504982 68.5929 1.12791C68.5929 1.75083 69.0979 2.25582 69.7209 2.25582ZM80.624 1.12791C80.624 1.75083 80.119 2.25582 79.4961 2.25582C78.8731 2.25582 78.3682 1.75083 78.3682 1.12791C78.3682 0.504982 78.8731 0 79.4961 0C80.119 0 80.624 0.504982 80.624 1.12791ZM89.2713 2.25582C89.8942 2.25582 90.3992 1.75083 90.3992 1.12791C90.3992 0.504982 89.8942 0 89.2713 0C88.6483 0 88.1434 0.504982 88.1434 1.12791C88.1434 1.75083 88.6483 2.25582 89.2713 2.25582ZM100.174 1.12791C100.174 1.75083 99.6694 2.25582 99.0465 2.25582C98.4235 2.25582 97.9186 1.75083 97.9186 1.12791C97.9186 0.504982 98.4235 0 99.0465 0C99.6694 0 100.174 0.504982 100.174 1.12791ZM108.822 2.25582C109.445 2.25582 109.95 1.75083 109.95 1.12791C109.95 0.504982 109.445 0 108.822 0C108.199 0 107.694 0.504982 107.694 1.12791C107.694 1.75083 108.199 2.25582 108.822 2.25582ZM119.725 1.12791C119.725 1.75083 119.22 2.25582 118.597 2.25582C117.974 2.25582 117.469 1.75083 117.469 1.12791C117.469 0.504982 117.974 0 118.597 0C119.22 0 119.725 0.504982 119.725 1.12791ZM128.372 2.25582C128.995 2.25582 129.5 1.75083 129.5 1.12791C129.5 0.504982 128.995 0 128.372 0C127.749 0 127.244 0.504982 127.244 1.12791C127.244 1.75083 127.749 2.25582 128.372 2.25582ZM2.42232 10.9031C2.42232 11.526 1.91734 12.031 1.29441 12.031C0.671486 12.031 0.166504 11.526 0.166504 10.9031C0.166504 10.2802 0.671486 9.77521 1.29441 9.77521C1.91734 9.77521 2.42232 10.2802 2.42232 10.9031ZM11.0696 12.031C11.6925 12.031 12.1975 11.526 12.1975 10.9031C12.1975 10.2802 11.6925 9.77521 11.0696 9.77521C10.4467 9.77521 9.94171 10.2802 9.94171 10.9031C9.94171 11.526 10.4467 12.031 11.0696 12.031ZM21.9727 10.9031C21.9727 11.526 21.4678 12.031 20.8448 12.031C20.2219 12.031 19.7169 11.526 19.7169 10.9031C19.7169 10.2802 20.2219 9.77521 20.8448 9.77521C21.4678 9.77521 21.9727 10.2802 21.9727 10.9031ZM30.62 12.031C31.243 12.031 31.7479 11.526 31.7479 10.9031C31.7479 10.2802 31.243 9.77521 30.62 9.77521C29.9971 9.77521 29.4921 10.2802 29.4921 10.9031C29.4921 11.526 29.9971 12.031 30.62 12.031ZM41.5231 10.9031C41.5231 11.526 41.0182 12.031 40.3952 12.031C39.7723 12.031 39.2673 11.526 39.2673 10.9031C39.2673 10.2802 39.7723 9.77521 40.3952 9.77521C41.0182 9.77521 41.5231 10.2802 41.5231 10.9031ZM50.1704 12.031C50.7934 12.031 51.2984 11.526 51.2984 10.9031C51.2984 10.2802 50.7934 9.77521 50.1704 9.77521C49.5475 9.77521 49.0425 10.2802 49.0425 10.9031C49.0425 11.526 49.5475 12.031 50.1704 12.031ZM61.0736 10.9031C61.0736 11.526 60.5686 12.031 59.9456 12.031C59.3227 12.031 58.8177 11.526 58.8177 10.9031C58.8177 10.2802 59.3227 9.77521 59.9456 9.77521C60.5686 9.77521 61.0736 10.2802 61.0736 10.9031ZM69.7209 12.031C70.3438 12.031 70.8488 11.526 70.8488 10.9031C70.8488 10.2802 70.3438 9.77521 69.7209 9.77521C69.0979 9.77521 68.5929 10.2802 68.5929 10.9031C68.5929 11.526 69.0979 12.031 69.7209 12.031ZM80.624 10.9031C80.624 11.526 80.119 12.031 79.4961 12.031C78.8731 12.031 78.3682 11.526 78.3682 10.9031C78.3682 10.2802 78.8731 9.77521 79.4961 9.77521C80.119 9.77521 80.624 10.2802 80.624 10.9031ZM89.2713 12.031C89.8942 12.031 90.3992 11.526 90.3992 10.9031C90.3992 10.2802 89.8942 9.77521 89.2713 9.77521C88.6483 9.77521 88.1434 10.2802 88.1434 10.9031C88.1434 11.526 88.6483 12.031 89.2713 12.031ZM100.174 10.9031C100.174 11.526 99.6694 12.031 99.0465 12.031C98.4235 12.031 97.9186 11.526 97.9186 10.9031C97.9186 10.2802 98.4235 9.77521 99.0465 9.77521C99.6694 9.77521 100.174 10.2802 100.174 10.9031ZM108.822 12.031C109.445 12.031 109.95 11.526 109.95 10.9031C109.95 10.2802 109.445 9.77521 108.822 9.77521C108.199 9.77521 107.694 10.2802 107.694 10.9031C107.694 11.526 108.199 12.031 108.822 12.031ZM119.725 10.9031C119.725 11.526 119.22 12.031 118.597 12.031C117.974 12.031 117.469 11.526 117.469 10.9031C117.469 10.2802 117.974 9.77521 118.597 9.77521C119.22 9.77521 119.725 10.2802 119.725 10.9031ZM128.372 12.031C128.995 12.031 129.5 11.526 129.5 10.9031C129.5 10.2802 128.995 9.77521 128.372 9.77521C127.749 9.77521 127.244 10.2802 127.244 10.9031C127.244 11.526 127.749 12.031 128.372 12.031ZM2.42232 20.6783C2.42232 21.3012 1.91734 21.8062 1.29441 21.8062C0.671486 21.8062 0.166504 21.3012 0.166504 20.6783C0.166504 20.0554 0.671486 19.5504 1.29441 19.5504C1.91734 19.5504 2.42232 20.0554 2.42232 20.6783ZM11.0696 21.8062C11.6925 21.8062 12.1975 21.3012 12.1975 20.6783C12.1975 20.0554 11.6925 19.5504 11.0696 19.5504C10.4467 19.5504 9.94171 20.0554 9.94171 20.6783C9.94171 21.3012 10.4467 21.8062 11.0696 21.8062ZM21.9727 20.6783C21.9727 21.3012 21.4678 21.8062 20.8448 21.8062C20.2219 21.8062 19.7169 21.3012 19.7169 20.6783C19.7169 20.0554 20.2219 19.5504 20.8448 19.5504C21.4678 19.5504 21.9727 20.0554 21.9727 20.6783ZM30.62 21.8062C31.243 21.8062 31.7479 21.3012 31.7479 20.6783C31.7479 20.0554 31.243 19.5504 30.62 19.5504C29.9971 19.5504 29.4921 20.0554 29.4921 20.6783C29.4921 21.3012 29.9971 21.8062 30.62 21.8062ZM41.5231 20.6783C41.5231 21.3012 41.0182 21.8062 40.3952 21.8062C39.7723 21.8062 39.2673 21.3012 39.2673 20.6783C39.2673 20.0554 39.7723 19.5504 40.3952 19.5504C41.0182 19.5504 41.5231 20.0554 41.5231 20.6783ZM50.1704 21.8062C50.7934 21.8062 51.2984 21.3012 51.2984 20.6783C51.2984 20.0554 50.7934 19.5504 50.1704 19.5504C49.5475 19.5504 49.0425 20.0554 49.0425 20.6783C49.0425 21.3012 49.5475 21.8062 50.1704 21.8062ZM61.0736 20.6783C61.0736 21.3012 60.5686 21.8062 59.9456 21.8062C59.3227 21.8062 58.8177 21.3012 58.8177 20.6783C58.8177 20.0554 59.3227 19.5504 59.9456 19.5504C60.5686 19.5504 61.0736 20.0554 61.0736 20.6783ZM69.7209 21.8062C70.3438 21.8062 70.8488 21.3012 70.8488 20.6783C70.8488 20.0554 70.3438 19.5504 69.7209 19.5504C69.0979 19.5504 68.5929 20.0554 68.5929 20.6783C68.5929 21.3012 69.0979 21.8062 69.7209 21.8062ZM80.624 20.6783C80.624 21.3012 80.119 21.8062 79.4961 21.8062C78.8731 21.8062 78.3682 21.3012 78.3682 20.6783C78.3682 20.0554 78.8731 19.5504 79.4961 19.5504C80.119 19.5504 80.624 20.0554 80.624 20.6783ZM89.2713 21.8062C89.8942 21.8062 90.3992 21.3012 90.3992 20.6783C90.3992 20.0554 89.8942 19.5504 89.2713 19.5504C88.6483 19.5504 88.1434 20.0554 88.1434 20.6783C88.1434 21.3012 88.6483 21.8062 89.2713 21.8062ZM100.174 20.6783C100.174 21.3012 99.6694 21.8062 99.0465 21.8062C98.4235 21.8062 97.9186 21.3012 97.9186 20.6783C97.9186 20.0554 98.4235 19.5504 99.0465 19.5504C99.6694 19.5504 100.174 20.0554 100.174 20.6783ZM108.822 21.8062C109.445 21.8062 109.95 21.3012 109.95 20.6783C109.95 20.0554 109.445 19.5504 108.822 19.5504C108.199 19.5504 107.694 20.0554 107.694 20.6783C107.694 21.3012 108.199 21.8062 108.822 21.8062ZM119.725 20.6783C119.725 21.3012 119.22 21.8062 118.597 21.8062C117.974 21.8062 117.469 21.3012 117.469 20.6783C117.469 20.0554 117.974 19.5504 118.597 19.5504C119.22 19.5504 119.725 20.0554 119.725 20.6783ZM128.372 21.8062C128.995 21.8062 129.5 21.3012 129.5 20.6783C129.5 20.0554 128.995 19.5504 128.372 19.5504C127.749 19.5504 127.244 20.0554 127.244 20.6783C127.244 21.3012 127.749 21.8062 128.372 21.8062ZM2.42232 30.4535C2.42232 31.0765 1.91734 31.5814 1.29441 31.5814C0.671486 31.5814 0.166504 31.0765 0.166504 30.4535C0.166504 29.8306 0.671486 29.3256 1.29441 29.3256C1.91734 29.3256 2.42232 29.8306 2.42232 30.4535ZM11.0696 31.5814C11.6925 31.5814 12.1975 31.0765 12.1975 30.4535C12.1975 29.8306 11.6925 29.3256 11.0696 29.3256C10.4467 29.3256 9.94171 29.8306 9.94171 30.4535C9.94171 31.0765 10.4467 31.5814 11.0696 31.5814ZM21.9727 30.4535C21.9727 31.0765 21.4678 31.5814 20.8448 31.5814C20.2219 31.5814 19.7169 31.0765 19.7169 30.4535C19.7169 29.8306 20.2219 29.3256 20.8448 29.3256C21.4678 29.3256 21.9727 29.8306 21.9727 30.4535ZM30.62 31.5814C31.243 31.5814 31.7479 31.0765 31.7479 30.4535C31.7479 29.8306 31.243 29.3256 30.62 29.3256C29.9971 29.3256 29.4921 29.8306 29.4921 30.4535C29.4921 31.0765 29.9971 31.5814 30.62 31.5814ZM41.5231 30.4535C41.5231 31.0765 41.0182 31.5814 40.3952 31.5814C39.7723 31.5814 39.2673 31.0765 39.2673 30.4535C39.2673 29.8306 39.7723 29.3256 40.3952 29.3256C41.0182 29.3256 41.5231 29.8306 41.5231 30.4535ZM50.1704 31.5814C50.7934 31.5814 51.2984 31.0765 51.2984 30.4535C51.2984 29.8306 50.7934 29.3256 50.1704 29.3256C49.5475 29.3256 49.0425 29.8306 49.0425 30.4535C49.0425 31.0765 49.5475 31.5814 50.1704 31.5814ZM61.0736 30.4535C61.0736 31.0765 60.5686 31.5814 59.9456 31.5814C59.3227 31.5814 58.8177 31.0765 58.8177 30.4535C58.8177 29.8306 59.3227 29.3256 59.9456 29.3256C60.5686 29.3256 61.0736 29.8306 61.0736 30.4535ZM69.7209 31.5814C70.3438 31.5814 70.8488 31.0765 70.8488 30.4535C70.8488 29.8306 70.3438 29.3256 69.7209 29.3256C69.0979 29.3256 68.5929 29.8306 68.5929 30.4535C68.5929 31.0765 69.0979 31.5814 69.7209 31.5814ZM80.624 30.4535C80.624 31.0765 80.119 31.5814 79.4961 31.5814C78.8731 31.5814 78.3682 31.0765 78.3682 30.4535C78.3682 29.8306 78.8731 29.3256 79.4961 29.3256C80.119 29.3256 80.624 29.8306 80.624 30.4535ZM89.2713 31.5814C89.8942 31.5814 90.3992 31.0765 90.3992 30.4535C90.3992 29.8306 89.8942 29.3256 89.2713 29.3256C88.6483 29.3256 88.1434 29.8306 88.1434 30.4535C88.1434 31.0765 88.6483 31.5814 89.2713 31.5814ZM100.174 30.4535C100.174 31.0765 99.6694 31.5814 99.0465 31.5814C98.4235 31.5814 97.9186 31.0765 97.9186 30.4535C97.9186 29.8306 98.4235 29.3256 99.0465 29.3256C99.6694 29.3256 100.174 29.8306 100.174 30.4535ZM108.822 31.5814C109.445 31.5814 109.95 31.0765 109.95 30.4535C109.95 29.8306 109.445 29.3256 108.822 29.3256C108.199 29.3256 107.694 29.8306 107.694 30.4535C107.694 31.0765 108.199 31.5814 108.822 31.5814ZM119.725 30.4535C119.725 31.0765 119.22 31.5814 118.597 31.5814C117.974 31.5814 117.469 31.0765 117.469 30.4535C117.469 29.8306 117.974 29.3256 118.597 29.3256C119.22 29.3256 119.725 29.8306 119.725 30.4535ZM128.372 31.5814C128.995 31.5814 129.5 31.0765 129.5 30.4535C129.5 29.8306 128.995 29.3256 128.372 29.3256C127.749 29.3256 127.244 29.8306 127.244 30.4535C127.244 31.0765 127.749 31.5814 128.372 31.5814ZM2.42232 40.2287C2.42232 40.8517 1.91734 41.3566 1.29441 41.3566C0.671486 41.3566 0.166504 40.8517 0.166504 40.2287C0.166504 39.6058 0.671486 39.1008 1.29441 39.1008C1.91734 39.1008 2.42232 39.6058 2.42232 40.2287ZM11.0696 41.3566C11.6925 41.3566 12.1975 40.8517 12.1975 40.2287C12.1975 39.6058 11.6925 39.1008 11.0696 39.1008C10.4467 39.1008 9.94171 39.6058 9.94171 40.2287C9.94171 40.8517 10.4467 41.3566 11.0696 41.3566ZM21.9727 40.2287C21.9727 40.8517 21.4678 41.3566 20.8448 41.3566C20.2219 41.3566 19.7169 40.8517 19.7169 40.2287C19.7169 39.6058 20.2219 39.1008 20.8448 39.1008C21.4678 39.1008 21.9727 39.6058 21.9727 40.2287ZM30.62 41.3566C31.243 41.3566 31.7479 40.8517 31.7479 40.2287C31.7479 39.6058 31.243 39.1008 30.62 39.1008C29.9971 39.1008 29.4921 39.6058 29.4921 40.2287C29.4921 40.8517 29.9971 41.3566 30.62 41.3566ZM41.5231 40.2287C41.5231 40.8517 41.0182 41.3566 40.3952 41.3566C39.7723 41.3566 39.2673 40.8517 39.2673 40.2287C39.2673 39.6058 39.7723 39.1008 40.3952 39.1008C41.0182 39.1008 41.5231 39.6058 41.5231 40.2287ZM50.1704 41.3566C50.7934 41.3566 51.2984 40.8517 51.2984 40.2287C51.2984 39.6058 50.7934 39.1008 50.1704 39.1008C49.5475 39.1008 49.0425 39.6058 49.0425 40.2287C49.0425 40.8517 49.5475 41.3566 50.1704 41.3566ZM61.0736 40.2287C61.0736 40.8517 60.5686 41.3566 59.9456 41.3566C59.3227 41.3566 58.8177 40.8517 58.8177 40.2287C58.8177 39.6058 59.3227 39.1008 59.9456 39.1008C60.5686 39.1008 61.0736 39.6058 61.0736 40.2287ZM69.7209 41.3566C70.3438 41.3566 70.8488 40.8517 70.8488 40.2287C70.8488 39.6058 70.3438 39.1008 69.7209 39.1008C69.0979 39.1008 68.5929 39.6058 68.5929 40.2287C68.5929 40.8517 69.0979 41.3566 69.7209 41.3566ZM80.624 40.2287C80.624 40.8517 80.119 41.3566 79.4961 41.3566C78.8731 41.3566 78.3682 40.8517 78.3682 40.2287C78.3682 39.6058 78.8731 39.1008 79.4961 39.1008C80.119 39.1008 80.624 39.6058 80.624 40.2287ZM89.2713 41.3566C89.8942 41.3566 90.3992 40.8517 90.3992 40.2287C90.3992 39.6058 89.8942 39.1008 89.2713 39.1008C88.6483 39.1008 88.1434 39.6058 88.1434 40.2287C88.1434 40.8517 88.6483 41.3566 89.2713 41.3566ZM100.174 40.2287C100.174 40.8517 99.6694 41.3566 99.0465 41.3566C98.4235 41.3566 97.9186 40.8517 97.9186 40.2287C97.9186 39.6058 98.4235 39.1008 99.0465 39.1008C99.6694 39.1008 100.174 39.6058 100.174 40.2287ZM108.822 41.3566C109.445 41.3566 109.95 40.8517 109.95 40.2287C109.95 39.6058 109.445 39.1008 108.822 39.1008C108.199 39.1008 107.694 39.6058 107.694 40.2287C107.694 40.8517 108.199 41.3566 108.822 41.3566ZM119.725 40.2287C119.725 40.8517 119.22 41.3566 118.597 41.3566C117.974 41.3566 117.469 40.8517 117.469 40.2287C117.469 39.6058 117.974 39.1008 118.597 39.1008C119.22 39.1008 119.725 39.6058 119.725 40.2287ZM128.372 41.3566C128.995 41.3566 129.5 40.8517 129.5 40.2287C129.5 39.6058 128.995 39.1008 128.372 39.1008C127.749 39.1008 127.244 39.6058 127.244 40.2287C127.244 40.8517 127.749 41.3566 128.372 41.3566ZM2.42232 50.0039C2.42232 50.6269 1.91734 51.1318 1.29441 51.1318C0.671486 51.1318 0.166504 50.6269 0.166504 50.0039C0.166504 49.381 0.671486 48.876 1.29441 48.876C1.91734 48.876 2.42232 49.381 2.42232 50.0039ZM11.0696 51.1318C11.6925 51.1318 12.1975 50.6269 12.1975 50.0039C12.1975 49.381 11.6925 48.876 11.0696 48.876C10.4467 48.876 9.94171 49.381 9.94171 50.0039C9.94171 50.6269 10.4467 51.1318 11.0696 51.1318ZM21.9727 50.0039C21.9727 50.6269 21.4678 51.1318 20.8448 51.1318C20.2219 51.1318 19.7169 50.6269 19.7169 50.0039C19.7169 49.381 20.2219 48.876 20.8448 48.876C21.4678 48.876 21.9727 49.381 21.9727 50.0039ZM30.62 51.1318C31.243 51.1318 31.7479 50.6269 31.7479 50.0039C31.7479 49.381 31.243 48.876 30.62 48.876C29.9971 48.876 29.4921 49.381 29.4921 50.0039C29.4921 50.6269 29.9971 51.1318 30.62 51.1318ZM41.5231 50.0039C41.5231 50.6269 41.0182 51.1318 40.3952 51.1318C39.7723 51.1318 39.2673 50.6269 39.2673 50.0039C39.2673 49.381 39.7723 48.876 40.3952 48.876C41.0182 48.876 41.5231 49.381 41.5231 50.0039ZM50.1704 51.1318C50.7934 51.1318 51.2984 50.6269 51.2984 50.0039C51.2984 49.381 50.7934 48.876 50.1704 48.876C49.5475 48.876 49.0425 49.381 49.0425 50.0039C49.0425 50.6269 49.5475 51.1318 50.1704 51.1318ZM61.0736 50.0039C61.0736 50.6269 60.5686 51.1318 59.9456 51.1318C59.3227 51.1318 58.8177 50.6269 58.8177 50.0039C58.8177 49.381 59.3227 48.876 59.9456 48.876C60.5686 48.876 61.0736 49.381 61.0736 50.0039ZM69.7209 51.1318C70.3438 51.1318 70.8488 50.6269 70.8488 50.0039C70.8488 49.381 70.3438 48.876 69.7209 48.876C69.0979 48.876 68.5929 49.381 68.5929 50.0039C68.5929 50.6269 69.0979 51.1318 69.7209 51.1318ZM80.624 50.0039C80.624 50.6269 80.119 51.1318 79.4961 51.1318C78.8731 51.1318 78.3682 50.6269 78.3682 50.0039C78.3682 49.381 78.8731 48.876 79.4961 48.876C80.119 48.876 80.624 49.381 80.624 50.0039ZM89.2713 51.1318C89.8942 51.1318 90.3992 50.6269 90.3992 50.0039C90.3992 49.381 89.8942 48.876 89.2713 48.876C88.6483 48.876 88.1434 49.381 88.1434 50.0039C88.1434 50.6269 88.6483 51.1318 89.2713 51.1318ZM100.174 50.0039C100.174 50.6269 99.6694 51.1318 99.0465 51.1318C98.4235 51.1318 97.9186 50.6269 97.9186 50.0039C97.9186 49.381 98.4235 48.876 99.0465 48.876C99.6694 48.876 100.174 49.381 100.174 50.0039ZM108.822 51.1318C109.445 51.1318 109.95 50.6269 109.95 50.0039C109.95 49.381 109.445 48.876 108.822 48.876C108.199 48.876 107.694 49.381 107.694 50.0039C107.694 50.6269 108.199 51.1318 108.822 51.1318ZM119.725 50.0039C119.725 50.6269 119.22 51.1318 118.597 51.1318C117.974 51.1318 117.469 50.6269 117.469 50.0039C117.469 49.381 117.974 48.876 118.597 48.876C119.22 48.876 119.725 49.381 119.725 50.0039ZM128.372 51.1318C128.995 51.1318 129.5 50.6269 129.5 50.0039C129.5 49.381 128.995 48.876 128.372 48.876C127.749 48.876 127.244 49.381 127.244 50.0039C127.244 50.6269 127.749 51.1318 128.372 51.1318ZM2.42232 59.7791C2.42232 60.4021 1.91734 60.9071 1.29441 60.9071C0.671486 60.9071 0.166504 60.4021 0.166504 59.7791C0.166504 59.1562 0.671486 58.6512 1.29441 58.6512C1.91734 58.6512 2.42232 59.1562 2.42232 59.7791ZM11.0696 60.9071C11.6925 60.9071 12.1975 60.4021 12.1975 59.7791C12.1975 59.1562 11.6925 58.6512 11.0696 58.6512C10.4467 58.6512 9.94171 59.1562 9.94171 59.7791C9.94171 60.4021 10.4467 60.9071 11.0696 60.9071ZM21.9727 59.7791C21.9727 60.4021 21.4678 60.9071 20.8448 60.9071C20.2219 60.9071 19.7169 60.4021 19.7169 59.7791C19.7169 59.1562 20.2219 58.6512 20.8448 58.6512C21.4678 58.6512 21.9727 59.1562 21.9727 59.7791ZM30.62 60.9071C31.243 60.9071 31.7479 60.4021 31.7479 59.7791C31.7479 59.1562 31.243 58.6512 30.62 58.6512C29.9971 58.6512 29.4921 59.1562 29.4921 59.7791C29.4921 60.4021 29.9971 60.9071 30.62 60.9071ZM41.5231 59.7791C41.5231 60.4021 41.0182 60.9071 40.3952 60.9071C39.7723 60.9071 39.2673 60.4021 39.2673 59.7791C39.2673 59.1562 39.7723 58.6512 40.3952 58.6512C41.0182 58.6512 41.5231 59.1562 41.5231 59.7791ZM50.1704 60.9071C50.7934 60.9071 51.2984 60.4021 51.2984 59.7791C51.2984 59.1562 50.7934 58.6512 50.1704 58.6512C49.5475 58.6512 49.0425 59.1562 49.0425 59.7791C49.0425 60.4021 49.5475 60.9071 50.1704 60.9071ZM61.0736 59.7791C61.0736 60.4021 60.5686 60.9071 59.9456 60.9071C59.3227 60.9071 58.8177 60.4021 58.8177 59.7791C58.8177 59.1562 59.3227 58.6512 59.9456 58.6512C60.5686 58.6512 61.0736 59.1562 61.0736 59.7791ZM69.7209 60.9071C70.3438 60.9071 70.8488 60.4021 70.8488 59.7791C70.8488 59.1562 70.3438 58.6512 69.7209 58.6512C69.0979 58.6512 68.5929 59.1562 68.5929 59.7791C68.5929 60.4021 69.0979 60.9071 69.7209 60.9071ZM80.624 59.7791C80.624 60.4021 80.119 60.9071 79.4961 60.9071C78.8731 60.9071 78.3682 60.4021 78.3682 59.7791C78.3682 59.1562 78.8731 58.6512 79.4961 58.6512C80.119 58.6512 80.624 59.1562 80.624 59.7791ZM89.2713 60.9071C89.8942 60.9071 90.3992 60.4021 90.3992 59.7791C90.3992 59.1562 89.8942 58.6512 89.2713 58.6512C88.6483 58.6512 88.1434 59.1562 88.1434 59.7791C88.1434 60.4021 88.6483 60.9071 89.2713 60.9071ZM100.174 59.7791C100.174 60.4021 99.6694 60.9071 99.0465 60.9071C98.4235 60.9071 97.9186 60.4021 97.9186 59.7791C97.9186 59.1562 98.4235 58.6512 99.0465 58.6512C99.6694 58.6512 100.174 59.1562 100.174 59.7791ZM108.822 60.9071C109.445 60.9071 109.95 60.4021 109.95 59.7791C109.95 59.1562 109.445 58.6512 108.822 58.6512C108.199 58.6512 107.694 59.1562 107.694 59.7791C107.694 60.4021 108.199 60.9071 108.822 60.9071ZM119.725 59.7791C119.725 60.4021 119.22 60.9071 118.597 60.9071C117.974 60.9071 117.469 60.4021 117.469 59.7791C117.469 59.1562 117.974 58.6512 118.597 58.6512C119.22 58.6512 119.725 59.1562 119.725 59.7791ZM128.372 60.9071C128.995 60.9071 129.5 60.4021 129.5 59.7791C129.5 59.1562 128.995 58.6512 128.372 58.6512C127.749 58.6512 127.244 59.1562 127.244 59.7791C127.244 60.4021 127.749 60.9071 128.372 60.9071ZM2.42232 69.5544C2.42232 70.1773 1.91734 70.6823 1.29441 70.6823C0.671486 70.6823 0.166504 70.1773 0.166504 69.5544C0.166504 68.9314 0.671486 68.4264 1.29441 68.4264C1.91734 68.4264 2.42232 68.9314 2.42232 69.5544ZM11.0696 70.6823C11.6925 70.6823 12.1975 70.1773 12.1975 69.5544C12.1975 68.9314 11.6925 68.4264 11.0696 68.4264C10.4467 68.4264 9.94171 68.9314 9.94171 69.5544C9.94171 70.1773 10.4467 70.6823 11.0696 70.6823ZM21.9727 69.5544C21.9727 70.1773 21.4678 70.6823 20.8448 70.6823C20.2219 70.6823 19.7169 70.1773 19.7169 69.5544C19.7169 68.9314 20.2219 68.4264 20.8448 68.4264C21.4678 68.4264 21.9727 68.9314 21.9727 69.5544ZM30.62 70.6823C31.243 70.6823 31.7479 70.1773 31.7479 69.5544C31.7479 68.9314 31.243 68.4264 30.62 68.4264C29.9971 68.4264 29.4921 68.9314 29.4921 69.5544C29.4921 70.1773 29.9971 70.6823 30.62 70.6823ZM41.5231 69.5544C41.5231 70.1773 41.0182 70.6823 40.3952 70.6823C39.7723 70.6823 39.2673 70.1773 39.2673 69.5544C39.2673 68.9314 39.7723 68.4264 40.3952 68.4264C41.0182 68.4264 41.5231 68.9314 41.5231 69.5544ZM50.1704 70.6823C50.7934 70.6823 51.2984 70.1773 51.2984 69.5544C51.2984 68.9314 50.7934 68.4264 50.1704 68.4264C49.5475 68.4264 49.0425 68.9314 49.0425 69.5544C49.0425 70.1773 49.5475 70.6823 50.1704 70.6823ZM61.0736 69.5544C61.0736 70.1773 60.5686 70.6823 59.9456 70.6823C59.3227 70.6823 58.8177 70.1773 58.8177 69.5544C58.8177 68.9314 59.3227 68.4264 59.9456 68.4264C60.5686 68.4264 61.0736 68.9314 61.0736 69.5544ZM69.7209 70.6823C70.3438 70.6823 70.8488 70.1773 70.8488 69.5544C70.8488 68.9314 70.3438 68.4264 69.7209 68.4264C69.0979 68.4264 68.5929 68.9314 68.5929 69.5544C68.5929 70.1773 69.0979 70.6823 69.7209 70.6823ZM80.624 69.5544C80.624 70.1773 80.119 70.6823 79.4961 70.6823C78.8731 70.6823 78.3682 70.1773 78.3682 69.5544C78.3682 68.9314 78.8731 68.4264 79.4961 68.4264C80.119 68.4264 80.624 68.9314 80.624 69.5544ZM89.2713 70.6823C89.8942 70.6823 90.3992 70.1773 90.3992 69.5544C90.3992 68.9314 89.8942 68.4264 89.2713 68.4264C88.6483 68.4264 88.1434 68.9314 88.1434 69.5544C88.1434 70.1773 88.6483 70.6823 89.2713 70.6823ZM100.174 69.5544C100.174 70.1773 99.6694 70.6823 99.0465 70.6823C98.4235 70.6823 97.9186 70.1773 97.9186 69.5544C97.9186 68.9314 98.4235 68.4264 99.0465 68.4264C99.6694 68.4264 100.174 68.9314 100.174 69.5544ZM108.822 70.6823C109.445 70.6823 109.95 70.1773 109.95 69.5544C109.95 68.9314 109.445 68.4264 108.822 68.4264C108.199 68.4264 107.694 68.9314 107.694 69.5544C107.694 70.1773 108.199 70.6823 108.822 70.6823ZM119.725 69.5544C119.725 70.1773 119.22 70.6823 118.597 70.6823C117.974 70.6823 117.469 70.1773 117.469 69.5544C117.469 68.9314 117.974 68.4264 118.597 68.4264C119.22 68.4264 119.725 68.9314 119.725 69.5544ZM128.372 70.6823C128.995 70.6823 129.5 70.1773 129.5 69.5544C129.5 68.9314 128.995 68.4264 128.372 68.4264C127.749 68.4264 127.244 68.9314 127.244 69.5544C127.244 70.1773 127.749 70.6823 128.372 70.6823ZM2.42232 79.3296C2.42232 79.9525 1.91734 80.4575 1.29441 80.4575C0.671486 80.4575 0.166504 79.9525 0.166504 79.3296C0.166504 78.7066 0.671486 78.2017 1.29441 78.2017C1.91734 78.2017 2.42232 78.7066 2.42232 79.3296ZM11.0696 80.4575C11.6925 80.4575 12.1975 79.9525 12.1975 79.3296C12.1975 78.7066 11.6925 78.2017 11.0696 78.2017C10.4467 78.2017 9.94171 78.7066 9.94171 79.3296C9.94171 79.9525 10.4467 80.4575 11.0696 80.4575ZM21.9727 79.3296C21.9727 79.9525 21.4678 80.4575 20.8448 80.4575C20.2219 80.4575 19.7169 79.9525 19.7169 79.3296C19.7169 78.7066 20.2219 78.2017 20.8448 78.2017C21.4678 78.2017 21.9727 78.7066 21.9727 79.3296ZM30.62 80.4575C31.243 80.4575 31.7479 79.9525 31.7479 79.3296C31.7479 78.7066 31.243 78.2017 30.62 78.2017C29.9971 78.2017 29.4921 78.7066 29.4921 79.3296C29.4921 79.9525 29.9971 80.4575 30.62 80.4575ZM41.5231 79.3296C41.5231 79.9525 41.0182 80.4575 40.3952 80.4575C39.7723 80.4575 39.2673 79.9525 39.2673 79.3296C39.2673 78.7066 39.7723 78.2017 40.3952 78.2017C41.0182 78.2017 41.5231 78.7066 41.5231 79.3296ZM50.1704 80.4575C50.7934 80.4575 51.2984 79.9525 51.2984 79.3296C51.2984 78.7066 50.7934 78.2017 50.1704 78.2017C49.5475 78.2017 49.0425 78.7066 49.0425 79.3296C49.0425 79.9525 49.5475 80.4575 50.1704 80.4575ZM61.0736 79.3296C61.0736 79.9525 60.5686 80.4575 59.9456 80.4575C59.3227 80.4575 58.8177 79.9525 58.8177 79.3296C58.8177 78.7066 59.3227 78.2017 59.9456 78.2017C60.5686 78.2017 61.0736 78.7066 61.0736 79.3296ZM69.7209 80.4575C70.3438 80.4575 70.8488 79.9525 70.8488 79.3296C70.8488 78.7066 70.3438 78.2017 69.7209 78.2017C69.0979 78.2017 68.5929 78.7066 68.5929 79.3296C68.5929 79.9525 69.0979 80.4575 69.7209 80.4575ZM80.624 79.3296C80.624 79.9525 80.119 80.4575 79.4961 80.4575C78.8731 80.4575 78.3682 79.9525 78.3682 79.3296C78.3682 78.7066 78.8731 78.2017 79.4961 78.2017C80.119 78.2017 80.624 78.7066 80.624 79.3296ZM89.2713 80.4575C89.8942 80.4575 90.3992 79.9525 90.3992 79.3296C90.3992 78.7066 89.8942 78.2017 89.2713 78.2017C88.6483 78.2017 88.1434 78.7066 88.1434 79.3296C88.1434 79.9525 88.6483 80.4575 89.2713 80.4575ZM100.174 79.3296C100.174 79.9525 99.6694 80.4575 99.0465 80.4575C98.4235 80.4575 97.9186 79.9525 97.9186 79.3296C97.9186 78.7066 98.4235 78.2017 99.0465 78.2017C99.6694 78.2017 100.174 78.7066 100.174 79.3296ZM108.822 80.4575C109.445 80.4575 109.95 79.9525 109.95 79.3296C109.95 78.7066 109.445 78.2017 108.822 78.2017C108.199 78.2017 107.694 78.7066 107.694 79.3296C107.694 79.9525 108.199 80.4575 108.822 80.4575ZM119.725 79.3296C119.725 79.9525 119.22 80.4575 118.597 80.4575C117.974 80.4575 117.469 79.9525 117.469 79.3296C117.469 78.7066 117.974 78.2017 118.597 78.2017C119.22 78.2017 119.725 78.7066 119.725 79.3296ZM128.372 80.4575C128.995 80.4575 129.5 79.9525 129.5 79.3296C129.5 78.7066 128.995 78.2017 128.372 78.2017C127.749 78.2017 127.244 78.7066 127.244 79.3296C127.244 79.9525 127.749 80.4575 128.372 80.4575ZM2.42232 89.1048C2.42232 89.7277 1.91734 90.2327 1.29441 90.2327C0.671486 90.2327 0.166504 89.7277 0.166504 89.1048C0.166504 88.4818 0.671486 87.9769 1.29441 87.9769C1.91734 87.9769 2.42232 88.4818 2.42232 89.1048ZM11.0696 90.2327C11.6925 90.2327 12.1975 89.7277 12.1975 89.1048C12.1975 88.4818 11.6925 87.9769 11.0696 87.9769C10.4467 87.9769 9.94171 88.4818 9.94171 89.1048C9.94171 89.7277 10.4467 90.2327 11.0696 90.2327ZM21.9727 89.1048C21.9727 89.7277 21.4678 90.2327 20.8448 90.2327C20.2219 90.2327 19.7169 89.7277 19.7169 89.1048C19.7169 88.4818 20.2219 87.9769 20.8448 87.9769C21.4678 87.9769 21.9727 88.4818 21.9727 89.1048ZM30.62 90.2327C31.243 90.2327 31.7479 89.7277 31.7479 89.1048C31.7479 88.4818 31.243 87.9769 30.62 87.9769C29.9971 87.9769 29.4921 88.4818 29.4921 89.1048C29.4921 89.7277 29.9971 90.2327 30.62 90.2327ZM41.5231 89.1048C41.5231 89.7277 41.0182 90.2327 40.3952 90.2327C39.7723 90.2327 39.2673 89.7277 39.2673 89.1048C39.2673 88.4818 39.7723 87.9769 40.3952 87.9769C41.0182 87.9769 41.5231 88.4818 41.5231 89.1048ZM50.1704 90.2327C50.7934 90.2327 51.2984 89.7277 51.2984 89.1048C51.2984 88.4818 50.7934 87.9769 50.1704 87.9769C49.5475 87.9769 49.0425 88.4818 49.0425 89.1048C49.0425 89.7277 49.5475 90.2327 50.1704 90.2327ZM61.0736 89.1048C61.0736 89.7277 60.5686 90.2327 59.9456 90.2327C59.3227 90.2327 58.8177 89.7277 58.8177 89.1048C58.8177 88.4818 59.3227 87.9769 59.9456 87.9769C60.5686 87.9769 61.0736 88.4818 61.0736 89.1048ZM69.7209 90.2327C70.3438 90.2327 70.8488 89.7277 70.8488 89.1048C70.8488 88.4818 70.3438 87.9769 69.7209 87.9769C69.0979 87.9769 68.5929 88.4818 68.5929 89.1048C68.5929 89.7277 69.0979 90.2327 69.7209 90.2327ZM80.624 89.1048C80.624 89.7277 80.119 90.2327 79.4961 90.2327C78.8731 90.2327 78.3682 89.7277 78.3682 89.1048C78.3682 88.4818 78.8731 87.9769 79.4961 87.9769C80.119 87.9769 80.624 88.4818 80.624 89.1048ZM89.2713 90.2327C89.8942 90.2327 90.3992 89.7277 90.3992 89.1048C90.3992 88.4818 89.8942 87.9769 89.2713 87.9769C88.6483 87.9769 88.1434 88.4818 88.1434 89.1048C88.1434 89.7277 88.6483 90.2327 89.2713 90.2327ZM100.174 89.1048C100.174 89.7277 99.6694 90.2327 99.0465 90.2327C98.4235 90.2327 97.9186 89.7277 97.9186 89.1048C97.9186 88.4818 98.4235 87.9769 99.0465 87.9769C99.6694 87.9769 100.174 88.4818 100.174 89.1048ZM108.822 90.2327C109.445 90.2327 109.95 89.7277 109.95 89.1048C109.95 88.4818 109.445 87.9769 108.822 87.9769C108.199 87.9769 107.694 88.4818 107.694 89.1048C107.694 89.7277 108.199 90.2327 108.822 90.2327ZM119.725 89.1048C119.725 89.7277 119.22 90.2327 118.597 90.2327C117.974 90.2327 117.469 89.7277 117.469 89.1048C117.469 88.4818 117.974 87.9769 118.597 87.9769C119.22 87.9769 119.725 88.4818 119.725 89.1048ZM128.372 90.2327C128.995 90.2327 129.5 89.7277 129.5 89.1048C129.5 88.4818 128.995 87.9769 128.372 87.9769C127.749 87.9769 127.244 88.4818 127.244 89.1048C127.244 89.7277 127.749 90.2327 128.372 90.2327ZM2.42232 98.88C2.42232 99.5029 1.91734 100.008 1.29441 100.008C0.671486 100.008 0.166504 99.5029 0.166504 98.88C0.166504 98.257 0.671486 97.7521 1.29441 97.7521C1.91734 97.7521 2.42232 98.257 2.42232 98.88ZM11.0696 100.008C11.6925 100.008 12.1975 99.5029 12.1975 98.88C12.1975 98.257 11.6925 97.7521 11.0696 97.7521C10.4467 97.7521 9.94171 98.257 9.94171 98.88C9.94171 99.5029 10.4467 100.008 11.0696 100.008ZM21.9727 98.88C21.9727 99.5029 21.4678 100.008 20.8448 100.008C20.2219 100.008 19.7169 99.5029 19.7169 98.88C19.7169 98.257 20.2219 97.7521 20.8448 97.7521C21.4678 97.7521 21.9727 98.257 21.9727 98.88ZM30.62 100.008C31.243 100.008 31.7479 99.5029 31.7479 98.88C31.7479 98.257 31.243 97.7521 30.62 97.7521C29.9971 97.7521 29.4921 98.257 29.4921 98.88C29.4921 99.5029 29.9971 100.008 30.62 100.008ZM41.5231 98.88C41.5231 99.5029 41.0182 100.008 40.3952 100.008C39.7723 100.008 39.2673 99.5029 39.2673 98.88C39.2673 98.257 39.7723 97.7521 40.3952 97.7521C41.0182 97.7521 41.5231 98.257 41.5231 98.88ZM50.1704 100.008C50.7934 100.008 51.2984 99.5029 51.2984 98.88C51.2984 98.257 50.7934 97.7521 50.1704 97.7521C49.5475 97.7521 49.0425 98.257 49.0425 98.88C49.0425 99.5029 49.5475 100.008 50.1704 100.008ZM61.0736 98.88C61.0736 99.5029 60.5686 100.008 59.9456 100.008C59.3227 100.008 58.8177 99.5029 58.8177 98.88C58.8177 98.257 59.3227 97.7521 59.9456 97.7521C60.5686 97.7521 61.0736 98.257 61.0736 98.88ZM69.7209 100.008C70.3438 100.008 70.8488 99.5029 70.8488 98.88C70.8488 98.257 70.3438 97.7521 69.7209 97.7521C69.0979 97.7521 68.5929 98.257 68.5929 98.88C68.5929 99.5029 69.0979 100.008 69.7209 100.008ZM80.624 98.88C80.624 99.5029 80.119 100.008 79.4961 100.008C78.8731 100.008 78.3682 99.5029 78.3682 98.88C78.3682 98.257 78.8731 97.7521 79.4961 97.7521C80.119 97.7521 80.624 98.257 80.624 98.88ZM89.2713 100.008C89.8942 100.008 90.3992 99.5029 90.3992 98.88C90.3992 98.257 89.8942 97.7521 89.2713 97.7521C88.6483 97.7521 88.1434 98.257 88.1434 98.88C88.1434 99.5029 88.6483 100.008 89.2713 100.008ZM100.174 98.88C100.174 99.5029 99.6694 100.008 99.0465 100.008C98.4235 100.008 97.9186 99.5029 97.9186 98.88C97.9186 98.257 98.4235 97.7521 99.0465 97.7521C99.6694 97.7521 100.174 98.257 100.174 98.88ZM108.822 100.008C109.445 100.008 109.95 99.5029 109.95 98.88C109.95 98.257 109.445 97.7521 108.822 97.7521C108.199 97.7521 107.694 98.257 107.694 98.88C107.694 99.5029 108.199 100.008 108.822 100.008ZM119.725 98.88C119.725 99.5029 119.22 100.008 118.597 100.008C117.974 100.008 117.469 99.5029 117.469 98.88C117.469 98.257 117.974 97.7521 118.597 97.7521C119.22 97.7521 119.725 98.257 119.725 98.88ZM128.372 100.008C128.995 100.008 129.5 99.5029 129.5 98.88C129.5 98.257 128.995 97.7521 128.372 97.7521C127.749 97.7521 127.244 98.257 127.244 98.88C127.244 99.5029 127.749 100.008 128.372 100.008Z" fill="url(#paint0_linear_73_1742)" fill-opacity="0.5"/>
<defs>
<linearGradient id="paint0_linear_73_1742" x1="0.166505" y1="-7.51939" x2="64.8332" y2="100.008" gradientUnits="userSpaceOnUse">
<stop stop-color="#C8C8C8"/>
<stop offset="0.809275" stop-color="#4F33FF" stop-opacity="0"/>
</linearGradient>
</defs>
</svg>
