<svg width="113" height="54" viewBox="0 0 113 54" fill="none" xmlns="http://www.w3.org/2000/svg">
<g clip-path="url(#clip0_135_126)">
<path d="M0 0.216454C0.470363 -0.0395137 1.92241 0.00291193 1.92241 0.00291193H26.9985L75.0151 0.345145L68.6072 12.2031L68.1588 12.7271C68.1588 12.7271 68.0648 12.8982 67.1764 12.8982H39.0034L38.9391 13.0672L39.0246 13.2835L43.7451 22.1802L35.7991 36.4861L35.7567 36.5582L23.0901 13.4327C23.0901 13.4327 22.8126 13.0905 22.535 12.9837C22.2575 12.877 20.143 12.8713 19.972 12.8713C19.8011 12.8713 7.51944 12.877 7.51944 12.877C7.51944 12.877 7.09216 12.8982 6.81461 12.6846C6.53705 12.4704 5.29829 10.0111 5.16975 9.83999C5.04051 9.66887 0 0.216454 0 0.216454Z" fill="#F47521"/>
<path d="M37.6007 39.3943L50.1176 16.3841C50.1176 16.3841 50.3739 15.9782 50.566 15.9987C50.7581 16.0199 60.2424 15.9987 60.2424 15.9987H66.2872L45.5044 54L37.6007 39.3943Z" fill="#F47521"/>
<path d="M68.3438 19.0781L85.1257 50.4285C85.1257 50.4285 85.4032 50.9206 85.1899 51.3053C84.9767 51.6906 83.7584 53.8713 83.7584 53.8713L71.8828 53.8925C71.8828 53.8925 71.2422 53.9109 70.8467 53.2936C70.4512 52.6763 69.6786 51.1334 69.6786 51.1334L60.6259 34.5387C60.6259 34.5387 60.3914 34.0253 60.5616 33.6831C60.7325 33.3416 68.343 19.0774 68.343 19.0774" fill="#F47521"/>
<path d="M113 0.238289L87.1336 47.8836L79.4439 33.7701C79.4439 33.7701 79.2094 33.3211 79.4651 32.8501C79.7215 32.3792 96.8304 0.879623 96.8304 0.879623C96.8304 0.879623 97.0493 0.216369 97.8799 0.152731C98.7104 0.0883853 113 0.238289 113 0.238289Z" fill="#F47521"/>
</g>
<defs>
<clipPath id="clip0_135_126">
<rect width="113" height="54" fill="white"/>
</clipPath>
</defs>
</svg>
