<svg width="890" height="262" viewBox="0 0 890 262" fill="none" xmlns="http://www.w3.org/2000/svg">
<mask id="path-1-outside-1_73_1399" maskUnits="userSpaceOnUse" x="-0.592529" y="-0.0581055" width="891" height="262" fill="black">
<rect fill="white" x="-0.592529" y="-0.0581055" width="891" height="262"/>
<path d="M36.0034 259.942L2.62599 2.45907H47.1292L64.9305 159.81L87.5 2.77697H122.785L146.308 159.492L164.109 2.45907H207.976L174.917 259.942H130.414L105.301 96.8694L81.4602 259.942H36.0034ZM237.254 259.942V2.45907H289.386V259.942H237.254ZM352.974 259.942V41.5583H313.239V2.45907H444.842V41.5583H405.743V259.942H352.974ZM468.834 259.942V2.45907H521.284V108.313H566.741V2.45907H619.192V259.942H566.741V145.823H521.284V259.942H468.834ZM659.438 259.942V2.45907H711.57V259.942H659.438ZM751 259.942V2.45907H787.556L844.775 136.604V2.45907H888.006V259.942H853.039L795.821 117.532V259.942H751Z"/>
</mask>
<path d="M36.0034 259.942L34.02 260.199L34.2459 261.942H36.0034V259.942ZM2.62599 2.45907V0.459068H0.349998L0.642586 2.71618L2.62599 2.45907ZM47.1292 2.45907L49.1165 2.23425L48.9157 0.459068H47.1292V2.45907ZM64.9305 159.81L62.9432 160.035L66.9101 160.094L64.9305 159.81ZM87.5 2.77696V0.776962H85.7669L85.5203 2.49244L87.5 2.77696ZM122.785 2.77696L124.762 2.48009L124.507 0.776962H122.785V2.77696ZM146.308 159.492L144.33 159.789L148.295 159.717L146.308 159.492ZM164.109 2.45907V0.459068H162.323L162.122 2.2338L164.109 2.45907ZM207.976 2.45907L209.96 2.71377L210.25 0.459068H207.976V2.45907ZM174.917 259.942V261.942H176.677L176.901 260.197L174.917 259.942ZM130.414 259.942L128.437 260.246L128.698 261.942H130.414V259.942ZM105.301 96.8694L107.278 96.565L103.322 96.5801L105.301 96.8694ZM81.4602 259.942V261.942H83.1891L83.4392 260.231L81.4602 259.942ZM37.9868 259.685L4.6094 2.20197L0.642586 2.71618L34.02 260.199L37.9868 259.685ZM2.62599 4.45907H47.1292V0.459068H2.62599V4.45907ZM45.1419 2.6839L62.9432 160.035L66.9178 159.585L49.1165 2.23425L45.1419 2.6839ZM66.9101 160.094L89.4796 3.06149L85.5203 2.49244L62.9508 159.525L66.9101 160.094ZM87.5 4.77696H122.785V0.776962H87.5V4.77696ZM120.807 3.07384L144.33 159.789L148.286 159.195L124.762 2.48009L120.807 3.07384ZM148.295 159.717L166.096 2.68435L162.122 2.2338L144.32 159.267L148.295 159.717ZM164.109 4.45907H207.976V0.459068H164.109V4.45907ZM205.993 2.20437L172.933 259.687L176.901 260.197L209.96 2.71377L205.993 2.20437ZM174.917 257.942H130.414V261.942H174.917V257.942ZM132.39 259.637L107.278 96.565L103.325 97.1739L128.437 260.246L132.39 259.637ZM103.322 96.5801L79.4813 259.653L83.4392 260.231L107.28 97.1588L103.322 96.5801ZM81.4602 257.942H36.0034V261.942H81.4602V257.942ZM237.254 259.942H235.254V261.942H237.254V259.942ZM237.254 2.45907V0.459068H235.254V2.45907H237.254ZM289.386 2.45907H291.386V0.459068H289.386V2.45907ZM289.386 259.942V261.942H291.386V259.942H289.386ZM239.254 259.942V2.45907H235.254V259.942H239.254ZM237.254 4.45907H289.386V0.459068H237.254V4.45907ZM287.386 2.45907V259.942H291.386V2.45907H287.386ZM289.386 257.942H237.254V261.942H289.386V257.942ZM352.974 259.942H350.974V261.942H352.974V259.942ZM352.974 41.5583H354.974V39.5583H352.974V41.5583ZM313.239 41.5583H311.239V43.5583H313.239V41.5583ZM313.239 2.45907V0.459068H311.239V2.45907H313.239ZM444.842 2.45907H446.842V0.459068H444.842V2.45907ZM444.842 41.5583V43.5583H446.842V41.5583H444.842ZM405.743 41.5583V39.5583H403.743V41.5583H405.743ZM405.743 259.942V261.942H407.743V259.942H405.743ZM354.974 259.942V41.5583H350.974V259.942H354.974ZM352.974 39.5583H313.239V43.5583H352.974V39.5583ZM315.239 41.5583V2.45907H311.239V41.5583H315.239ZM313.239 4.45907H444.842V0.459068H313.239V4.45907ZM442.842 2.45907V41.5583H446.842V2.45907H442.842ZM444.842 39.5583H405.743V43.5583H444.842V39.5583ZM403.743 41.5583V259.942H407.743V41.5583H403.743ZM405.743 257.942H352.974V261.942H405.743V257.942ZM468.834 259.942H466.834V261.942H468.834V259.942ZM468.834 2.45907V0.459068H466.834V2.45907H468.834ZM521.284 2.45907H523.284V0.459068H521.284V2.45907ZM521.284 108.313H519.284V110.313H521.284V108.313ZM566.741 108.313V110.313H568.741V108.313H566.741ZM566.741 2.45907V0.459068H564.741V2.45907H566.741ZM619.192 2.45907H621.192V0.459068H619.192V2.45907ZM619.192 259.942V261.942H621.192V259.942H619.192ZM566.741 259.942H564.741V261.942H566.741V259.942ZM566.741 145.823H568.741V143.823H566.741V145.823ZM521.284 145.823V143.823H519.284V145.823H521.284ZM521.284 259.942V261.942H523.284V259.942H521.284ZM470.834 259.942V2.45907H466.834V259.942H470.834ZM468.834 4.45907H521.284V0.459068H468.834V4.45907ZM519.284 2.45907V108.313H523.284V2.45907H519.284ZM521.284 110.313H566.741V106.313H521.284V110.313ZM568.741 108.313V2.45907H564.741V108.313H568.741ZM566.741 4.45907H619.192V0.459068H566.741V4.45907ZM617.192 2.45907V259.942H621.192V2.45907H617.192ZM619.192 257.942H566.741V261.942H619.192V257.942ZM568.741 259.942V145.823H564.741V259.942H568.741ZM566.741 143.823H521.284V147.823H566.741V143.823ZM519.284 145.823V259.942H523.284V145.823H519.284ZM521.284 257.942H468.834V261.942H521.284V257.942ZM659.438 259.942H657.438V261.942H659.438V259.942ZM659.438 2.45907V0.459068H657.438V2.45907H659.438ZM711.57 2.45907H713.57V0.459068H711.57V2.45907ZM711.57 259.942V261.942H713.57V259.942H711.57ZM661.438 259.942V2.45907H657.438V259.942H661.438ZM659.438 4.45907H711.57V0.459068H659.438V4.45907ZM709.57 2.45907V259.942H713.57V2.45907H709.57ZM711.57 257.942H659.438V261.942H711.57V257.942ZM751 259.942H749V261.942H751V259.942ZM751 2.45907V0.459068H749V2.45907H751ZM787.556 2.45907L789.396 1.67439L788.877 0.459068H787.556V2.45907ZM844.775 136.604L842.935 137.389L846.775 136.604H844.775ZM844.775 2.45907V0.459068H842.775V2.45907H844.775ZM888.006 2.45907H890.006V0.459068H888.006V2.45907ZM888.006 259.942V261.942H890.006V259.942H888.006ZM853.039 259.942L851.184 260.688L851.688 261.942H853.039V259.942ZM795.821 117.532L797.677 116.786L793.821 117.532H795.821ZM795.821 259.942V261.942H797.821V259.942H795.821ZM753 259.942V2.45907H749V259.942H753ZM751 4.45907H787.556V0.459068H751V4.45907ZM785.716 3.24375L842.935 137.389L846.614 135.82L789.396 1.67439L785.716 3.24375ZM846.775 136.604V2.45907H842.775V136.604H846.775ZM844.775 4.45907H888.006V0.459068H844.775V4.45907ZM886.006 2.45907V259.942H890.006V2.45907H886.006ZM888.006 257.942H853.039V261.942H888.006V257.942ZM854.895 259.196L797.677 116.786L793.965 118.277L851.184 260.688L854.895 259.196ZM793.821 117.532V259.942H797.821V117.532H793.821ZM795.821 257.942H751V261.942H795.821V257.942Z" fill="white" fill-opacity="0.4" mask="url(#path-1-outside-1_73_1399)"/>
</svg>
